<svg xmlns="http://www.w3.org/2000/svg" viewBox="0 0 120 80" width="120" height="80">
  <defs>
    <linearGradient id="gradNuxt" x1="0%" y1="0%" x2="100%" y2="100%">
      <stop offset="0%" style="stop-color:#00DC82" />
      <stop offset="100%" style="stop-color:#00AD64" />
    </linearGradient>
  </defs>
  
  <!-- Nuxt-inspired shape -->
  <path d="M20 60L40 20L60 60H50L40 40L30 60H20Z" fill="url(#gradNuxt)" />
  
  <!-- Fast symbol (lightning bolt) -->
  <path d="M70 20L55 45H75L65 60L80 35H60L70 20Z" fill="#FFD700" />
  
  <!-- Admin symbol (gear) -->
  <path d="M100 40c0-2.8-2.2-5-5-5s-5 2.2-5 5 2.2 5 5 5 5-2.2 5-5zm-5 7c-1.5 0-2.9-0.3-4.2-0.9l-2.8 2.8c-0.4 0.4-1 0.4-1.4 0l-1.4-1.4c-0.4-0.4-0.4-1 0-1.4l2.8-2.8c-0.6-1.3-0.9-2.7-0.9-4.2 0-5.5 4.5-10 10-10s10 4.5 10 10-4.5 10-10 10z" fill="#4A4A4A" />
  
  <!-- Text -->
  <text x="60" y="75" font-family="Arial, sans-serif" font-size="10" fill="#333" text-anchor="middle">Nuxt Fast Admin</text>
</svg>